<?xml version="1.0" encoding="UTF-8"?>
<svg id="Ebene_1" data-name="Ebene 1" xmlns="http://www.w3.org/2000/svg" version="1.1" viewBox="0 0 808 478">
  <defs>
    <style>
      .cls-1 {
        fill: #000;
        stroke-width: 0px;
      }
    </style>
  </defs>
  <path class="cls-1" d="M97.3,8.6c-8.6,0-17.1,0-25.7,0-28.5-.3-49.8,11.8-61,39.2-11.2,27.3-4.4,51,15.3,72.2,38.7,41.6,37.7,64.9-3.3,108.1-22.8,24.1-23.2,59.5-.8,82.9,20.5,21.5,57,21.8,78.4.7,22.6-22.3,22.9-57.9.5-82.8-47.2-52.5-36-118.2,25.1-151,19.1-10.3,36.7-12.8,51.7,6,10.8,13.6,10.8,29.1-.3,42.3-14,16.6-30.9,17.9-48.6,5.3-12-8.5-24.2-8.9-35.2,1.5-8.5,8.1-11.4,18.5-6.7,30,5.9,14.4,17.9,18.3,31.6,17.1,19.2-1.7,37.2-.6,46.2,20.4,8.4,19.4-1.9,32.9-14.4,46.6-16.7,18.4-18.7,40-4.9,60.8,13.4,20.1,37.7,26.4,58.5,19.2,21.4-7.4,38.3-28.5,37.5-52.3-.5-43-26.9-65-57.2-83.7-19.4-12-32.1-18.8-6-38.4,15.7-11.8,21.7-31.8,22.5-52.8,2.2-59.4-32.7-90.5-103.1-91.2h0Z"/>
  <path class="cls-1" d="M378.7,211.6c8.2-58.6,29.7-60.5,53.1-65,17.8-3.4,40.8-4.7,58.2,1,12.3,4,20.4,11,20,26.2-.3,12.4-6.5,28.3-31.2,27.4-15.2.1-35.6-16.6-46.7-24.4-30.7-23-29.3,24.8-27.4,57.2.7,11.5,3,25.6,14.5,31.8,13.2,7.1,27.4,6.7,41,.6,7.8-3.5,9.9-12.9,5.2-20.4-1.5-2.3-3.6-4.3-5.8-6-5.1-4.2-9.4-7.5-7.6-15.1,2-8.2,7.8-11.6,14.9-12,11-.6,22.1-.9,33,.5,12.4,1.6,16.3,10.7,10.9,21.7-.5.9-1.1,1.8-1.8,2.5-11.4,12.1-12.2,25.3-4,37.6,18.3,27.5,11.6,52.3-21,55.5-19.2,1.8-38.8,1.6-58,0-22-1.9-40.2-18.2-43.9-40-3.3-19.4-6.2-59.2-3.5-79h0Z"/>
  <path class="cls-1" d="M712,263.6c4.5,14.1,8,28.4,6.1,43.5-3.6,28.7-33.5,52.5-61.5,48.5-15.3-2.2-25.2-11.9-30.8-25.7-5.3-13.1-1.7-24.7,7.6-34.8,5.9-6.3,12.1-12.4,17.9-18.7,15.2-16.5,18.5-35.8,12.5-56.8-2.3-7.9-5.9-15.4-9.1-23.1-7.5-18.5-2.1-34.2,14.9-42.8,17.3-8.8,36.3-3.7,46.4,12.2,4.7,7.4,6.1,15.7,6.3,24.2.2,5.6,4.9,45.6,13.5,66.6,5.2,12.7,19.2,12.5,23.7,9.5,13.1-8.8,9.7-19.4,3.7-28.5-8.1-12.1-23.3-25.9-31.4-43.8-1.9-6.6-3.9-13.6-4-20.4,0-11.6,8-21.4,19.1-24.9,14.5-5.2,25.6-5,38.2.5,17.2,7.6,15.9,37.2,6.8,45.4-2.6,2.3-8.8,9.2-18.6,9.4-5.7,0-8.5.3-8.7,3.2-.9,7.3,1.4,13.6,6.7,18.6,4.8,4.4,10.3,8,14.9,12.5,4.8,4.7,9.9,9.6,13.3,15.3,11.2,18.7,7.6,37.3-8.9,50.6-16.4,13.2-37.3,12.8-52.9-.8-9.5-8.2-14.1-18.9-16.4-30.8-2.2-11.5-5.9-24.3-6.9-34.4-2-14.6-1.8-31.2-6.1-41.9-4-9.9-14.9-13-23.7-8.3-10.6,5.7-10.7,18.7-3.6,26.1,12.2,12.7,24.5,27.1,30.9,49.5h0Z"/>
  <path class="cls-1" d="M262.4,154.4c4.5-1.3,9.2-1.6,13.8-.9,6,.9,17,11.4,22.3,12.3,7.9,1.4,14.9,0,20.8-5.7,1.2-1.2,2.6-2.2,3.9-3.2,12.5-9.5,21-12.4,31.2-4.8,12.1,9,14.9,19.3,9.5,34-4.8,13.2-16.2,20.7-30.6,19.4-5.2-.5-10.3-2.8-15.5-3.4-5.9-.7-12.1-1.5-17.7-.2-9.1,2-14,12.1-11.4,20.5,2.7,8.5,9.4,18.5,18.7,18.5,21.9,0,21.3-16.8,31.1-17.2s17.2,2.8,21.8,11.4c4.8,8.8,4.4,17.8-1.1,26.2-5,7.6-12.4,9.7-21,7.8-8-1.8-15.7-8.5-23.7-10.2-5.6-1.2-11.6,2.5-15.2,8.4-3.4,5.6-2.1,16.5,2.4,21.3,4.9,5.1,10.9,4.7,16.8,2.2,3-1.3,5.6-3.7,8.4-5.7,11.8-8.5,22.9-9.3,30.5-2.2,9,8.4,11.5,26.2,3.8,36.1-3.8,4.9-9.8,9.7-15.7,11.3-11.3,3-25.6-17.8-42-1.9-12.7,12.3-15.8,35-32.5,30.2-14.9-4.3-21.6-16.3-24.1-30.8-1.7-9.8.9-19,6.7-26.8,14.5-23.2,9.4-60.7-3-77-3.8-5-8-9.8-11.7-14.9-16.1-22.2-8.6-38.5,15.4-51.6,2.5-1.4,5.3-2.3,7.9-3h0Z"/>
  <path class="cls-1" d="M539.9,92.8c4.5-1.3,9.1-1.6,13.7-.9,5.9.9,17,11.3,22.2,12.2,7.8,1.4,14.8,0,20.7-5.7,1.2-1.2,2.6-2.2,3.9-3.2,12.5-9.5,20.9-12.3,31.1-4.7,12,9,14.8,19.2,9.5,33.9-4.8,13.1-16.2,20.6-30.4,19.2-5.2-.5-10.2-2.8-15.4-3.4-5.8-.7-12-1.5-17.6-.2-9,2-14,12-11.3,20.4,2.7,8.4,9.3,18.4,18.6,18.4,21.8,0,21.2-16.7,30.9-17.1s17.1,2.8,21.7,11.3c4.8,8.8,4.4,17.7-1.1,26-4.9,7.5-12.3,9.7-20.9,7.8-8-1.8-15.6-8.4-23.6-10.2-5.5-1.2-11.5,2.5-15.1,8.4-3.3,5.5-2.1,16.5,2.4,21.1,4.9,5.1,10.9,4.7,16.7,2.2,3-1.3,5.6-3.7,8.4-5.6,11.8-8.5,22.8-9.3,30.3-2.2,8.9,8.4,11.5,26,3.8,35.9-3.8,4.9-9.8,9.7-15.6,11.2-11.2,3-25.5-17.7-41.8-1.9-12.6,12.2-15.7,34.9-32.3,30-14.8-4.3-21.5-16.2-24-30.6-1.7-9.8.9-18.9,6.6-26.6,14.5-23.1,9.4-60.4-2.9-76.5-3.8-5-7.9-9.7-11.6-14.8-16.1-22-8.6-38.3,15.3-51.3,2.5-1.4,5.2-2.3,7.9-3h0Z"/>
  <path class="cls-1" d="M180.7,448.4v19.6h-40.2v-118.7h40.2v45.7c5.4-17.8,19.3-27.7,41.4-27.7s45.3,22.4,45.3,51.8-19.3,52.2-46.5,52.2-33-7.4-40.2-22.9h0ZM225.2,419.2c0-12.2-8.6-21.1-22.2-21.1s-22.4,9.1-22.4,21.4,8.2,20.9,22.1,20.9,22.6-8.9,22.6-21.3h0Z"/>
  <path class="cls-1" d="M276.6,418.6c0-29.5,22.9-51.3,63-51.3s62.8,21.6,62.8,51.3-22.7,52.7-62.8,52.7-63-23.4-63-52.7ZM362,419.2c0-13-8.4-21.6-22.4-21.6s-22.6,8.6-22.6,21.6,8.4,21.9,22.6,21.9,22.4-8.9,22.4-21.9Z"/>
  <path class="cls-1" d="M411.2,418.9c0-29.2,22.4-51.6,63.4-51.6s32,4.6,41,10.4v30.2c-6.9-4.8-17.3-8.9-29.8-8.9-20.9,0-32.6,8.6-32.6,20.3s10.5,20.3,32.8,20.3,22.9-4,30-8.2v29.2c-11.5,6.9-25.7,10.9-42,10.9-41.4,0-62.8-23.4-62.8-52.4h0Z"/>
  <path class="cls-1" d="M572.1,417.4v50.6h-40.4v-118.7h40.4v58.2l32-35.9h45.5l-37.6,40.5,40.5,55.9h-46.2l-34.3-50.6h0Z"/>
</svg>